<svg id="Layer_1" data-name="Layer 1" xmlns="http://www.w3.org/2000/svg" viewBox="0 0 237.6 75.86"><defs><style>.cls-1{fill:#fbf4fa;}</style></defs><title>club</title><path class="cls-1" d="M123.16,387.17V311.31h237.6v75.86H123.16Zm236.25-1.24V312.55H124.57v73.38H359.41Z" transform="translate(-123.16 -311.31)"/><path class="cls-1" d="M213.58,376.28V322.7c5.15,0,10.2-.74,15,1.36,3.79,1.66,5.43,4.94,6,8.77a36.18,36.18,0,0,1,.21,5.82,10.89,10.89,0,0,1-3.63,8.19,10,10,0,0,0-.94,1.21,12.88,12.88,0,0,1,4.6,7.42,21.68,21.68,0,0,1-1.19,14.91,9.48,9.48,0,0,1-6.84,5.48C222.43,376.76,218,376.13,213.58,376.28Zm7.93-24.1v16.26A4.32,4.32,0,0,0,226.7,365a18.86,18.86,0,0,0-.05-9.48C226.11,353.5,224.83,351.9,221.51,352.18Zm0-21.26v13.83c1.88,0.08,3.32-.29,4.37-1.88,2-2.95,1.58-6.12.75-9.19C226,331.23,224,330.37,221.53,330.92Z" transform="translate(-123.16 -311.31)"/><path class="cls-1" d="M329,349.51c0-5.78-.17-11.56.06-17.33,0.16-4,1.94-7.4,5.73-9.1a10.39,10.39,0,0,1,15,9.41c0.16,11.38.18,22.77,0,34.15A10.41,10.41,0,0,1,333,374.91a10.22,10.22,0,0,1-3.9-8.06C328.93,361.07,329,355.29,329,349.51ZM340.6,369a4.29,4.29,0,0,0,1.28-3.5q0-16.21,0-32.43a3.8,3.8,0,0,0-.16-1.35c-0.4-1-.94-2-2.29-2a2.41,2.41,0,0,0-2.39,2.05,8.64,8.64,0,0,0-.32,2.2q0,15.44,0,30.88c0,1.54.2,3.1,1.65,4.14A3.93,3.93,0,0,0,340.6,369Z" transform="translate(-123.16 -311.31)"/><path class="cls-1" d="M184.8,322.77h7.65c0,1.16,0,2.18,0,3.19q0,19.23,0,38.46c0,1.76-.17,3.61,1.74,4.7,2.29,0.19,3.07-.38,3.25-2.61,0.15-1.82.2-3.65,0.2-5.48q0-18.2,0-36.39a2.56,2.56,0,0,1,.41-1.9h7a1.64,1.64,0,0,1,.41,1.5q0,21,0,42.06c0,4.38-2.79,8.72-6.53,10-7.26,2.5-14-1.52-14.19-9.51-0.38-14.24-.12-28.5-0.12-42.74A10.35,10.35,0,0,1,184.8,322.77Z" transform="translate(-123.16 -311.31)"/><path class="cls-1" d="M301.35,361H309c0.33,2.25-.05,4.5.49,6.66,0.27,1.09.4,2.21,1.79,2.36s2.13-.79,2.45-2.08a3,3,0,0,0,.18-0.65c0-4.22,0-8.45,0-12.92a8.69,8.69,0,0,1-6.24.86c-3.72-1-5.56-3.79-6-7.35a69.47,69.47,0,0,1-.05-17.45,9.37,9.37,0,0,1,9-8.28c7.84-.45,11.15,4.5,11.26,10.95,0.19,10.87.06,21.75,0,32.63a14.79,14.79,0,0,1-1.38,6.13c-1.79,3.92-6,5.43-10.15,5.08-5.76-.49-8.58-4.83-8.89-9.74A29.87,29.87,0,0,1,301.35,361Zm10.25-32.15a3,3,0,0,0-2.49,3.23c0,4.69,0,9.37,0,14.06a3.11,3.11,0,0,0,1.41,2.89c3.14-.07,3.44-0.36,3.44-3.44,0-4.51,0-9,0-13.54A2.85,2.85,0,0,0,311.6,328.87Z" transform="translate(-123.16 -311.31)"/><path class="cls-1" d="M274.12,361h7.72c0.76,3-.67,6.27,1.35,8.81a3.92,3.92,0,0,0,2.69-.08c1.82-4.9.75-10.06,1.07-15.5-2.86,1.51-5.4,1.73-7.91.48-3.64-1.8-4.69-5.2-4.87-8.82a132.2,132.2,0,0,1,0-13.73c0.21-3.85,1.62-7.4,5.45-9a10.85,10.85,0,0,1,10.66.67c2.61,1.71,3.78,4.32,4.19,7.32a41.44,41.44,0,0,1,.31,5.65c0,9,.06,18,0,26.95,0,3.06-.23,6.1-1.84,8.95-1.95,3.45-6.42,4.62-9.74,4.32-6.51-.58-8.94-5.9-9-10.93C274.09,364.41,274.12,362.76,274.12,361Zm10.22-32.11a2.68,2.68,0,0,0-2.27,2.92c0,4.91,0,9.83,0,14.74,0,2,.76,2.62,2.73,2.51,1.38-.08,2.09-1,2.11-2.95q0.06-6.94,0-13.89C286.91,330.54,286.26,329.21,284.34,328.88Z" transform="translate(-123.16 -311.31)"/><path class="cls-1" d="M154,341.08H146.5c0-2.49,0-4.87,0-7.25a4.35,4.35,0,0,0-.76-2.74c-1.39-1.91-3.59-1.7-4.59.45a5.38,5.38,0,0,0-.36,2.34q0,15.71,0,31.42a4.06,4.06,0,0,0,1.8,3.87l2.69-.35c2.54-3.1.47-7,1.55-10.56h7.14c0,4.2.47,8.32-1.09,12.26a10.27,10.27,0,0,1-13,6c-4.22-1.33-6.89-5.75-7-10.53-0.17-11-.26-22.09,0-33.13,0.11-4.1,1.64-8.2,6-9.82,7.3-2.72,13.12.51,14.71,8C154.27,334.3,154,337.58,154,341.08Z" transform="translate(-123.16 -311.31)"/><path class="cls-1" d="M160.82,376.13V322.8h7.83v46.39h10.51v6.95H160.82Z" transform="translate(-123.16 -311.31)"/><path class="cls-1" d="M266.82,376.17H259V334.5c-1.84-.56-3.53,0-5.19-0.43a22.9,22.9,0,0,1-.09-4.55c1.61-.93,3.44-1.4,5-2.51s2.36-2.73,3.47-4.18a18.23,18.23,0,0,1,4.6-.1v53.45Z" transform="translate(-123.16 -311.31)"/></svg>